<svg xmlns="http://www.w3.org/2000/svg" xmlns:xlink="http://www.w3.org/1999/xlink" width="553" zoomAndPan="magnify" viewBox="0 0 414.75 96.749999" height="129" preserveAspectRatio="xMidYMid meet" version="1.0"><defs><g/><clipPath id="d90df9fb9c"><path d="M 0.410156 0 L 414 0 L 414 96.097656 L 0.410156 96.097656 Z M 0.410156 0 " clip-rule="nonzero"/></clipPath><clipPath id="1c7a4b483a"><path d="M 28.089844 0 L 386.214844 0 C 393.554688 0 400.59375 2.917969 405.785156 8.105469 C 410.976562 13.296875 413.890625 20.335938 413.890625 27.679688 L 413.890625 68.417969 C 413.890625 75.761719 410.976562 82.800781 405.785156 87.992188 C 400.59375 93.179688 393.554688 96.097656 386.214844 96.097656 L 28.089844 96.097656 C 20.746094 96.097656 13.707031 93.179688 8.515625 87.992188 C 3.324219 82.800781 0.410156 75.761719 0.410156 68.417969 L 0.410156 27.679688 C 0.410156 20.335938 3.324219 13.296875 8.515625 8.105469 C 13.707031 2.917969 20.746094 0 28.089844 0 Z M 28.089844 0 " clip-rule="nonzero"/></clipPath><clipPath id="296629fcf9"><path d="M 26.511719 13.179688 L 96.082031 13.179688 L 96.082031 82.75 L 26.511719 82.75 Z M 26.511719 13.179688 " clip-rule="nonzero"/></clipPath><clipPath id="cea5b64c65"><path d="M 96.082031 47.964844 C 96.082031 67.175781 80.507812 82.75 61.296875 82.75 C 42.085938 82.75 26.511719 67.175781 26.511719 47.964844 C 26.511719 28.753906 42.085938 13.179688 61.296875 13.179688 C 80.507812 13.179688 96.082031 28.753906 96.082031 47.964844 Z M 96.082031 47.964844 " clip-rule="nonzero"/></clipPath><clipPath id="d1adb0fe08"><path d="M 96.082031 47.964844 C 96.082031 67.175781 80.507812 82.75 61.296875 82.75 C 42.085938 82.75 26.511719 67.175781 26.511719 47.964844 C 26.511719 28.753906 42.085938 13.179688 61.296875 13.179688 C 80.507812 13.179688 96.082031 28.753906 96.082031 47.964844 " clip-rule="nonzero"/></clipPath><clipPath id="aebc8e3f5e"><path d="M 61.296875 -21.605469 L -8.273438 47.964844 L 61.296875 117.535156 L 130.867188 47.964844 Z M 61.296875 -21.605469 " clip-rule="nonzero"/></clipPath><linearGradient x1="-0.207238" gradientTransform="matrix(49.193586, 49.193586, -49.193586, 49.193586, 36.691803, 23.388617)" y1="0" x2="1.206976" gradientUnits="userSpaceOnUse" y2="0" id="1d1c814a65"><stop stop-opacity="1" stop-color="rgb(0%, 68.598938%, 89.7995%)" offset="0"/><stop stop-opacity="1" stop-color="rgb(0%, 68.598938%, 89.7995%)" offset="0.125"/><stop stop-opacity="1" stop-color="rgb(0%, 68.597412%, 89.7995%)" offset="0.15625"/><stop stop-opacity="1" stop-color="rgb(0%, 68.400574%, 89.7995%)" offset="0.171875"/><stop stop-opacity="1" stop-color="rgb(0%, 68.202209%, 89.607239%)" offset="0.1875"/><stop stop-opacity="1" stop-color="rgb(0%, 68.103027%, 89.407349%)" offset="0.195312"/><stop stop-opacity="1" stop-color="rgb(0%, 67.903137%, 89.399719%)" offset="0.203125"/><stop stop-opacity="1" stop-color="rgb(0%, 67.799377%, 89.204407%)" offset="0.21875"/><stop stop-opacity="1" stop-color="rgb(0%, 67.645264%, 89.004517%)" offset="0.234375"/><stop stop-opacity="1" stop-color="rgb(0%, 67.297363%, 88.999939%)" offset="0.25"/><stop stop-opacity="1" stop-color="rgb(0%, 67.100525%, 88.806152%)" offset="0.265625"/><stop stop-opacity="1" stop-color="rgb(0%, 67.001343%, 88.604736%)" offset="0.273437"/><stop stop-opacity="1" stop-color="rgb(0%, 66.801453%, 88.598633%)" offset="0.28125"/><stop stop-opacity="1" stop-color="rgb(0%, 66.506958%, 88.406372%)" offset="0.3125"/><stop stop-opacity="1" stop-color="rgb(0%, 66.210938%, 88.206482%)" offset="0.320312"/><stop stop-opacity="1" stop-color="rgb(0%, 66.003418%, 88.198853%)" offset="0.328125"/><stop stop-opacity="1" stop-color="rgb(0%, 65.899658%, 88.00354%)" offset="0.34375"/><stop stop-opacity="1" stop-color="rgb(0%, 65.800476%, 87.80365%)" offset="0.351562"/><stop stop-opacity="1" stop-color="rgb(0%, 65.600586%, 87.799072%)" offset="0.359375"/><stop stop-opacity="1" stop-color="rgb(0%, 65.499878%, 87.799072%)" offset="0.375"/><stop stop-opacity="1" stop-color="rgb(0%, 65.304565%, 87.652588%)" offset="0.390625"/><stop stop-opacity="1" stop-color="rgb(0%, 65.007019%, 87.503052%)" offset="0.398437"/><stop stop-opacity="1" stop-color="rgb(0%, 64.801025%, 87.5%)" offset="0.40625"/><stop stop-opacity="1" stop-color="rgb(0%, 64.506531%, 87.306213%)" offset="0.4375"/><stop stop-opacity="1" stop-color="rgb(0%, 64.306641%, 87.106323%)" offset="0.453125"/><stop stop-opacity="1" stop-color="rgb(0%, 64.103699%, 86.903381%)" offset="0.46875"/><stop stop-opacity="1" stop-color="rgb(0%, 63.804626%, 86.703491%)" offset="0.476562"/><stop stop-opacity="1" stop-color="rgb(0%, 63.600159%, 86.698914%)" offset="0.484375"/><stop stop-opacity="1" stop-color="rgb(0%, 63.499451%, 86.698914%)" offset="0.5"/><stop stop-opacity="1" stop-color="rgb(0%, 63.304138%, 86.505127%)" offset="0.515625"/><stop stop-opacity="1" stop-color="rgb(0%, 63.102722%, 86.305237%)" offset="0.53125"/><stop stop-opacity="1" stop-color="rgb(0%, 62.89978%, 86.299133%)" offset="0.546875"/><stop stop-opacity="1" stop-color="rgb(0%, 62.556458%, 86.105347%)" offset="0.5625"/><stop stop-opacity="1" stop-color="rgb(0%, 62.40387%, 85.905457%)" offset="0.578125"/><stop stop-opacity="1" stop-color="rgb(0%, 62.202454%, 85.702515%)" offset="0.59375"/><stop stop-opacity="1" stop-color="rgb(0%, 61.999512%, 85.502625%)" offset="0.609375"/><stop stop-opacity="1" stop-color="rgb(0%, 61.79657%, 85.499573%)" offset="0.625"/><stop stop-opacity="1" stop-color="rgb(0%, 61.405945%, 85.30426%)" offset="0.640625"/><stop stop-opacity="1" stop-color="rgb(0%, 61.203003%, 85.10437%)" offset="0.65625"/><stop stop-opacity="1" stop-color="rgb(0%, 61.000061%, 85.099792%)" offset="0.671875"/><stop stop-opacity="1" stop-color="rgb(0%, 60.801697%, 84.906006%)" offset="0.6875"/><stop stop-opacity="1" stop-color="rgb(0%, 60.702515%, 84.706116%)" offset="0.695312"/><stop stop-opacity="1" stop-color="rgb(0%, 60.501099%, 84.69696%)" offset="0.703125"/><stop stop-opacity="1" stop-color="rgb(0%, 60.202026%, 84.501648%)" offset="0.71875"/><stop stop-opacity="1" stop-color="rgb(0%, 59.999084%, 84.301758%)" offset="0.734375"/><stop stop-opacity="1" stop-color="rgb(0%, 59.796143%, 84.298706%)" offset="0.75"/><stop stop-opacity="1" stop-color="rgb(0%, 59.599304%, 84.103394%)" offset="0.765625"/><stop stop-opacity="1" stop-color="rgb(0%, 59.500122%, 83.903503%)" offset="0.773437"/><stop stop-opacity="1" stop-color="rgb(0%, 59.298706%, 83.898926%)" offset="0.78125"/><stop stop-opacity="1" stop-color="rgb(0%, 59.09729%, 83.898926%)" offset="0.789062"/><stop stop-opacity="1" stop-color="rgb(0%, 58.900452%, 83.898926%)" offset="0.796875"/><stop stop-opacity="1" stop-color="rgb(0%, 58.80127%, 83.705139%)" offset="0.8125"/><stop stop-opacity="1" stop-color="rgb(0%, 58.702087%, 83.505249%)" offset="0.820312"/><stop stop-opacity="1" stop-color="rgb(0%, 58.502197%, 83.49762%)" offset="0.828125"/><stop stop-opacity="1" stop-color="rgb(0%, 58.399963%, 83.302307%)" offset="0.84375"/><stop stop-opacity="1" stop-color="rgb(0%, 58.300781%, 83.102417%)" offset="0.859375"/><stop stop-opacity="1" stop-color="rgb(0%, 58.100891%, 83.099365%)" offset="0.875"/><stop stop-opacity="1" stop-color="rgb(0%, 57.998657%, 83.099365%)" offset="1"/></linearGradient></defs><g clip-path="url(#d90df9fb9c)"><g clip-path="url(#1c7a4b483a)"><path fill="#ffffff" d="M 0.410156 0 L 414.078125 0 L 414.078125 96.097656 L 0.410156 96.097656 Z M 0.410156 0 " fill-opacity="1" fill-rule="nonzero"/></g></g><g clip-path="url(#296629fcf9)"><g clip-path="url(#cea5b64c65)"><g clip-path="url(#d1adb0fe08)"><g clip-path="url(#aebc8e3f5e)"><path fill="url(#1d1c814a65)" d="M 61.296875 -21.605469 L -8.273438 47.964844 L 61.296875 117.535156 L 130.867188 47.964844 Z M 61.296875 -21.605469 " fill-rule="nonzero"/></g></g></g></g><path fill="#ffffff" d="M 76.292969 32.683594 C 76.164062 32.683594 76.027344 32.707031 75.890625 32.757812 L 40.882812 46.0625 C 39.890625 46.4375 39.917969 47.84375 40.921875 48.183594 L 49.039062 50.925781 L 53.933594 60.722656 C 53.933594 60.726562 53.933594 60.726562 53.9375 60.730469 L 53.949219 60.757812 L 53.953125 60.753906 C 54.042969 60.9375 54.226562 61.054688 54.421875 61.054688 C 54.539062 61.054688 54.65625 61.015625 54.757812 60.925781 L 59.34375 57.039062 L 54.226562 53.152344 L 54.625 58.257812 L 50.945312 50.636719 L 70.507812 38.886719 L 54.226562 53.152344 L 66.902344 62.773438 C 67.324219 63.09375 67.8125 63.242188 68.289062 63.242188 C 69.292969 63.242188 70.261719 62.582031 70.53125 61.496094 L 77.382812 34.085938 C 77.570312 33.34375 76.988281 32.683594 76.292969 32.683594 " fill-opacity="1" fill-rule="nonzero"/><g fill="#000000" fill-opacity="1"><g transform="translate(164.002852, 42.064233)"><g><path d="M 13.15625 0.34375 C 10.945312 0.34375 8.992188 -0.101562 7.296875 -1 C 5.609375 -1.90625 4.285156 -3.285156 3.328125 -5.140625 C 2.378906 -6.992188 1.90625 -9.300781 1.90625 -12.0625 C 1.90625 -14.832031 2.378906 -17.144531 3.328125 -19 C 4.285156 -20.851562 5.609375 -22.226562 7.296875 -23.125 C 8.992188 -24.03125 10.945312 -24.484375 13.15625 -24.484375 C 15.375 -24.484375 17.320312 -24.035156 19 -23.140625 C 20.6875 -22.242188 22.003906 -20.863281 22.953125 -19 C 23.910156 -17.144531 24.390625 -14.832031 24.390625 -12.0625 C 24.390625 -9.300781 23.910156 -6.988281 22.953125 -5.125 C 22.003906 -3.269531 20.6875 -1.894531 19 -1 C 17.320312 -0.101562 15.375 0.34375 13.15625 0.34375 Z M 13.15625 -3.796875 C 15.207031 -3.796875 16.769531 -4.453125 17.84375 -5.765625 C 18.925781 -7.085938 19.46875 -9.1875 19.46875 -12.0625 C 19.46875 -14.945312 18.925781 -17.050781 17.84375 -18.375 C 16.769531 -19.695312 15.207031 -20.359375 13.15625 -20.359375 C 11.101562 -20.359375 9.53125 -19.695312 8.4375 -18.375 C 7.351562 -17.050781 6.8125 -14.945312 6.8125 -12.0625 C 6.8125 -9.1875 7.351562 -7.085938 8.4375 -5.765625 C 9.53125 -4.453125 11.101562 -3.796875 13.15625 -3.796875 Z M 13.15625 -3.796875 "/></g></g></g><g fill="#000000" fill-opacity="1"><g transform="translate(190.30522, 42.064233)"><g><path d="M 2.625 7.375 L 2.625 -18.203125 L 7.203125 -18.203125 L 7.203125 -15.828125 L 7.546875 -15.765625 C 8.085938 -16.691406 8.804688 -17.390625 9.703125 -17.859375 C 10.609375 -18.328125 11.664062 -18.5625 12.875 -18.5625 C 14.34375 -18.5625 15.625 -18.210938 16.71875 -17.515625 C 17.8125 -16.828125 18.660156 -15.773438 19.265625 -14.359375 C 19.878906 -12.941406 20.1875 -11.1875 20.1875 -9.09375 C 20.1875 -7.019531 19.863281 -5.273438 19.21875 -3.859375 C 18.582031 -2.453125 17.691406 -1.398438 16.546875 -0.703125 C 15.398438 -0.00390625 14.078125 0.34375 12.578125 0.34375 C 11.441406 0.34375 10.460938 0.15625 9.640625 -0.21875 C 8.816406 -0.601562 8.117188 -1.195312 7.546875 -2 L 7.203125 -1.9375 L 7.203125 7.375 Z M 11.3125 -3.53125 C 12.675781 -3.53125 13.707031 -3.972656 14.40625 -4.859375 C 15.113281 -5.753906 15.46875 -7.164062 15.46875 -9.09375 C 15.46875 -11.019531 15.113281 -12.429688 14.40625 -13.328125 C 13.707031 -14.222656 12.675781 -14.671875 11.3125 -14.671875 C 10.03125 -14.671875 9.015625 -14.207031 8.265625 -13.28125 C 7.523438 -12.363281 7.15625 -10.96875 7.15625 -9.09375 C 7.15625 -7.238281 7.523438 -5.847656 8.265625 -4.921875 C 9.015625 -3.992188 10.03125 -3.53125 11.3125 -3.53125 Z M 11.3125 -3.53125 "/></g></g></g><g fill="#000000" fill-opacity="1"><g transform="translate(212.116538, 42.064233)"><g><path d="M 18 -8.078125 L 6.296875 -8.078125 C 6.421875 -6.492188 6.867188 -5.335938 7.640625 -4.609375 C 8.410156 -3.890625 9.460938 -3.53125 10.796875 -3.53125 C 11.835938 -3.53125 12.679688 -3.722656 13.328125 -4.109375 C 13.984375 -4.503906 14.507812 -5.097656 14.90625 -5.890625 L 15.25 -5.890625 L 18.296875 -3.953125 C 17.703125 -2.671875 16.800781 -1.632812 15.59375 -0.84375 C 14.394531 -0.0507812 12.796875 0.34375 10.796875 0.34375 C 8.910156 0.34375 7.28125 -0.0078125 5.90625 -0.71875 C 4.539062 -1.4375 3.488281 -2.503906 2.75 -3.921875 C 2.007812 -5.335938 1.640625 -7.0625 1.640625 -9.09375 C 1.640625 -11.164062 2.03125 -12.910156 2.8125 -14.328125 C 3.59375 -15.742188 4.644531 -16.800781 5.96875 -17.5 C 7.300781 -18.207031 8.800781 -18.5625 10.46875 -18.5625 C 13.039062 -18.5625 15.007812 -17.878906 16.375 -16.515625 C 17.75 -15.148438 18.4375 -13.144531 18.4375 -10.5 C 18.4375 -9.539062 18.40625 -8.796875 18.34375 -8.265625 Z M 14.0625 -11.03125 C 14.019531 -12.414062 13.695312 -13.421875 13.09375 -14.046875 C 12.5 -14.679688 11.625 -15 10.46875 -15 C 8.15625 -15 6.796875 -13.675781 6.390625 -11.03125 Z M 14.0625 -11.03125 "/></g></g></g><g fill="#000000" fill-opacity="1"><g transform="translate(231.913489, 42.064233)"><g><path d="M 2.625 0 L 2.625 -18.203125 L 7.015625 -18.203125 L 7.015625 -15.53125 L 7.359375 -15.453125 C 8.492188 -17.523438 10.332031 -18.5625 12.875 -18.5625 C 14.976562 -18.5625 16.519531 -17.988281 17.5 -16.84375 C 18.488281 -15.695312 18.984375 -14.03125 18.984375 -11.84375 L 18.984375 0 L 14.40625 0 L 14.40625 -11.28125 C 14.40625 -12.488281 14.160156 -13.359375 13.671875 -13.890625 C 13.191406 -14.421875 12.421875 -14.6875 11.359375 -14.6875 C 10.046875 -14.6875 9.023438 -14.265625 8.296875 -13.421875 C 7.566406 -12.578125 7.203125 -11.242188 7.203125 -9.421875 L 7.203125 0 Z M 2.625 0 "/></g></g></g><g fill="#000000" fill-opacity="1"><g transform="translate(253.245976, 42.064233)"><g/></g></g><g fill="#000000" fill-opacity="1"><g transform="translate(261.220898, 42.064233)"><g><path d="M 4.90625 -20.390625 C 4.082031 -20.390625 3.410156 -20.640625 2.890625 -21.140625 C 2.367188 -21.640625 2.109375 -22.285156 2.109375 -23.078125 C 2.109375 -23.859375 2.367188 -24.5 2.890625 -25 C 3.410156 -25.5 4.082031 -25.75 4.90625 -25.75 C 5.457031 -25.75 5.945312 -25.632812 6.375 -25.40625 C 6.800781 -25.175781 7.132812 -24.859375 7.375 -24.453125 C 7.613281 -24.054688 7.734375 -23.597656 7.734375 -23.078125 C 7.734375 -22.566406 7.613281 -22.101562 7.375 -21.6875 C 7.132812 -21.28125 6.800781 -20.960938 6.375 -20.734375 C 5.945312 -20.503906 5.457031 -20.390625 4.90625 -20.390625 Z M 2.625 0 L 2.625 -18.203125 L 7.203125 -18.203125 L 7.203125 0 Z M 2.625 0 "/></g></g></g><g fill="#000000" fill-opacity="1"><g transform="translate(271.028559, 42.064233)"><g><path d="M 2.625 0 L 2.625 -18.203125 L 7.015625 -18.203125 L 7.015625 -15.53125 L 7.359375 -15.453125 C 8.492188 -17.523438 10.332031 -18.5625 12.875 -18.5625 C 14.976562 -18.5625 16.519531 -17.988281 17.5 -16.84375 C 18.488281 -15.695312 18.984375 -14.03125 18.984375 -11.84375 L 18.984375 0 L 14.40625 0 L 14.40625 -11.28125 C 14.40625 -12.488281 14.160156 -13.359375 13.671875 -13.890625 C 13.191406 -14.421875 12.421875 -14.6875 11.359375 -14.6875 C 10.046875 -14.6875 9.023438 -14.265625 8.296875 -13.421875 C 7.566406 -12.578125 7.203125 -11.242188 7.203125 -9.421875 L 7.203125 0 Z M 2.625 0 "/></g></g></g><g fill="#000000" fill-opacity="1"><g transform="translate(151.180516, 78.719515)"><g><path d="M 19.34375 -24.140625 L 19.34375 -20.125 L 12.375 -20.125 L 12.375 0 L 7.625 0 L 7.625 -20.125 L 0.65625 -20.125 L 0.65625 -24.140625 Z M 19.34375 -24.140625 "/></g></g></g><g fill="#000000" fill-opacity="1"><g transform="translate(171.192107, 78.719515)"><g><path d="M 18 -8.078125 L 6.296875 -8.078125 C 6.421875 -6.492188 6.867188 -5.335938 7.640625 -4.609375 C 8.410156 -3.890625 9.460938 -3.53125 10.796875 -3.53125 C 11.835938 -3.53125 12.679688 -3.722656 13.328125 -4.109375 C 13.984375 -4.503906 14.507812 -5.097656 14.90625 -5.890625 L 15.25 -5.890625 L 18.296875 -3.953125 C 17.703125 -2.671875 16.800781 -1.632812 15.59375 -0.84375 C 14.394531 -0.0507812 12.796875 0.34375 10.796875 0.34375 C 8.910156 0.34375 7.28125 -0.0078125 5.90625 -0.71875 C 4.539062 -1.4375 3.488281 -2.503906 2.75 -3.921875 C 2.007812 -5.335938 1.640625 -7.0625 1.640625 -9.09375 C 1.640625 -11.164062 2.03125 -12.910156 2.8125 -14.328125 C 3.59375 -15.742188 4.644531 -16.800781 5.96875 -17.5 C 7.300781 -18.207031 8.800781 -18.5625 10.46875 -18.5625 C 13.039062 -18.5625 15.007812 -17.878906 16.375 -16.515625 C 17.75 -15.148438 18.4375 -13.144531 18.4375 -10.5 C 18.4375 -9.539062 18.40625 -8.796875 18.34375 -8.265625 Z M 14.0625 -11.03125 C 14.019531 -12.414062 13.695312 -13.421875 13.09375 -14.046875 C 12.5 -14.679688 11.625 -15 10.46875 -15 C 8.15625 -15 6.796875 -13.675781 6.390625 -11.03125 Z M 14.0625 -11.03125 "/></g></g></g><g fill="#000000" fill-opacity="1"><g transform="translate(190.989057, 78.719515)"><g><path d="M 7.5625 0.34375 C 5.925781 0.34375 4.675781 -0.0976562 3.8125 -0.984375 C 2.945312 -1.867188 2.515625 -3.210938 2.515625 -5.015625 L 2.515625 -25.53125 L 7.078125 -25.53125 L 7.078125 -5.203125 C 7.078125 -4.085938 7.539062 -3.53125 8.46875 -3.53125 C 8.726562 -3.53125 9.007812 -3.578125 9.3125 -3.671875 L 9.546875 -3.59375 L 9.953125 -0.078125 C 9.703125 0.046875 9.367188 0.144531 8.953125 0.21875 C 8.535156 0.300781 8.070312 0.34375 7.5625 0.34375 Z M 7.5625 0.34375 "/></g></g></g><g fill="#000000" fill-opacity="1"><g transform="translate(201.457166, 78.719515)"><g><path d="M 18 -8.078125 L 6.296875 -8.078125 C 6.421875 -6.492188 6.867188 -5.335938 7.640625 -4.609375 C 8.410156 -3.890625 9.460938 -3.53125 10.796875 -3.53125 C 11.835938 -3.53125 12.679688 -3.722656 13.328125 -4.109375 C 13.984375 -4.503906 14.507812 -5.097656 14.90625 -5.890625 L 15.25 -5.890625 L 18.296875 -3.953125 C 17.703125 -2.671875 16.800781 -1.632812 15.59375 -0.84375 C 14.394531 -0.0507812 12.796875 0.34375 10.796875 0.34375 C 8.910156 0.34375 7.28125 -0.0078125 5.90625 -0.71875 C 4.539062 -1.4375 3.488281 -2.503906 2.75 -3.921875 C 2.007812 -5.335938 1.640625 -7.0625 1.640625 -9.09375 C 1.640625 -11.164062 2.03125 -12.910156 2.8125 -14.328125 C 3.59375 -15.742188 4.644531 -16.800781 5.96875 -17.5 C 7.300781 -18.207031 8.800781 -18.5625 10.46875 -18.5625 C 13.039062 -18.5625 15.007812 -17.878906 16.375 -16.515625 C 17.75 -15.148438 18.4375 -13.144531 18.4375 -10.5 C 18.4375 -9.539062 18.40625 -8.796875 18.34375 -8.265625 Z M 14.0625 -11.03125 C 14.019531 -12.414062 13.695312 -13.421875 13.09375 -14.046875 C 12.5 -14.679688 11.625 -15 10.46875 -15 C 8.15625 -15 6.796875 -13.675781 6.390625 -11.03125 Z M 14.0625 -11.03125 "/></g></g></g><g fill="#000000" fill-opacity="1"><g transform="translate(221.254117, 78.719515)"><g><path d="M 9.4375 7.734375 C 6.4375 7.734375 4.21875 7.289062 2.78125 6.40625 C 1.351562 5.519531 0.640625 4.289062 0.640625 2.71875 C 0.640625 1.757812 0.941406 0.972656 1.546875 0.359375 C 2.160156 -0.242188 3.039062 -0.648438 4.1875 -0.859375 L 4.1875 -1.203125 C 3.570312 -1.578125 3.128906 -1.992188 2.859375 -2.453125 C 2.585938 -2.910156 2.453125 -3.441406 2.453125 -4.046875 C 2.453125 -5.503906 3.40625 -6.488281 5.3125 -7 L 5.3125 -7.34375 C 4.332031 -7.90625 3.59375 -8.601562 3.09375 -9.4375 C 2.601562 -10.269531 2.359375 -11.273438 2.359375 -12.453125 C 2.359375 -13.660156 2.632812 -14.722656 3.1875 -15.640625 C 3.75 -16.554688 4.566406 -17.269531 5.640625 -17.78125 C 6.710938 -18.300781 8 -18.5625 9.5 -18.5625 C 11.007812 -18.5625 12.21875 -18.296875 13.125 -17.765625 C 13.6875 -18.578125 14.007812 -19.519531 14.09375 -20.59375 L 14.453125 -20.796875 L 17.734375 -20 C 17.628906 -19.125 17.375 -18.390625 16.96875 -17.796875 C 16.5625 -17.210938 15.929688 -16.691406 15.078125 -16.234375 L 15.078125 -15.859375 C 16.097656 -14.960938 16.609375 -13.703125 16.609375 -12.078125 C 16.609375 -10.960938 16.328125 -9.957031 15.765625 -9.0625 C 15.203125 -8.175781 14.382812 -7.472656 13.3125 -6.953125 C 12.238281 -6.429688 10.96875 -6.171875 9.5 -6.171875 L 8.796875 -6.1875 C 8.359375 -6.207031 8.050781 -6.21875 7.875 -6.21875 C 7.457031 -6.21875 7.128906 -6.101562 6.890625 -5.875 C 6.648438 -5.65625 6.53125 -5.367188 6.53125 -5.015625 C 6.53125 -4.628906 6.6875 -4.328125 7 -4.109375 C 7.3125 -3.898438 7.765625 -3.785156 8.359375 -3.765625 L 12.4375 -3.609375 C 16.457031 -3.492188 18.46875 -1.765625 18.46875 1.578125 C 18.46875 2.753906 18.164062 3.800781 17.5625 4.71875 C 16.96875 5.644531 16 6.378906 14.65625 6.921875 C 13.3125 7.460938 11.570312 7.734375 9.4375 7.734375 Z M 9.5 -9.375 C 10.375 -9.375 11.054688 -9.628906 11.546875 -10.140625 C 12.046875 -10.660156 12.296875 -11.398438 12.296875 -12.359375 C 12.296875 -13.316406 12.046875 -14.050781 11.546875 -14.5625 C 11.054688 -15.082031 10.375 -15.34375 9.5 -15.34375 C 8.601562 -15.34375 7.910156 -15.082031 7.421875 -14.5625 C 6.941406 -14.050781 6.703125 -13.316406 6.703125 -12.359375 C 6.703125 -11.390625 6.941406 -10.648438 7.421875 -10.140625 C 7.910156 -9.628906 8.601562 -9.375 9.5 -9.375 Z M 9.4375 4.40625 C 11 4.40625 12.132812 4.1875 12.84375 3.75 C 13.5625 3.3125 13.921875 2.738281 13.921875 2.03125 C 13.921875 1.457031 13.738281 1.035156 13.375 0.765625 C 13.007812 0.492188 12.429688 0.347656 11.640625 0.328125 L 8.046875 0.171875 C 7.921875 0.171875 7.804688 0.160156 7.703125 0.140625 C 7.597656 0.128906 7.492188 0.125 7.390625 0.125 C 6.617188 0.125 6.03125 0.289062 5.625 0.625 C 5.226562 0.957031 5.03125 1.414062 5.03125 2 C 5.03125 2.769531 5.398438 3.363281 6.140625 3.78125 C 6.878906 4.195312 7.976562 4.40625 9.4375 4.40625 Z M 9.4375 4.40625 "/></g></g></g><g fill="#000000" fill-opacity="1"><g transform="translate(240.192484, 78.719515)"><g><path d="M 2.625 0 L 2.625 -18.203125 L 7.0625 -18.203125 L 7.0625 -15.5 L 7.40625 -15.4375 C 7.851562 -16.445312 8.429688 -17.1875 9.140625 -17.65625 C 9.859375 -18.132812 10.726562 -18.375 11.75 -18.375 C 12.789062 -18.375 13.578125 -18.195312 14.109375 -17.84375 L 13.34375 -13.90625 L 13 -13.828125 C 12.695312 -13.953125 12.40625 -14.039062 12.125 -14.09375 C 11.851562 -14.15625 11.519531 -14.1875 11.125 -14.1875 C 9.851562 -14.1875 8.878906 -13.734375 8.203125 -12.828125 C 7.535156 -11.929688 7.203125 -10.492188 7.203125 -8.515625 L 7.203125 0 Z M 2.625 0 "/></g></g></g><g fill="#000000" fill-opacity="1"><g transform="translate(254.474689, 78.719515)"><g><path d="M 7.09375 0.34375 C 5.925781 0.34375 4.914062 0.128906 4.0625 -0.296875 C 3.207031 -0.722656 2.546875 -1.351562 2.078125 -2.1875 C 1.617188 -3.019531 1.390625 -4.019531 1.390625 -5.1875 C 1.390625 -6.257812 1.617188 -7.160156 2.078125 -7.890625 C 2.546875 -8.628906 3.257812 -9.234375 4.21875 -9.703125 C 5.1875 -10.171875 6.457031 -10.53125 8.03125 -10.78125 C 9.113281 -10.957031 9.9375 -11.148438 10.5 -11.359375 C 11.070312 -11.566406 11.457031 -11.800781 11.65625 -12.0625 C 11.851562 -12.332031 11.953125 -12.671875 11.953125 -13.078125 C 11.953125 -13.660156 11.75 -14.101562 11.34375 -14.40625 C 10.9375 -14.71875 10.257812 -14.875 9.3125 -14.875 C 8.300781 -14.875 7.335938 -14.644531 6.421875 -14.1875 C 5.503906 -13.738281 4.710938 -13.148438 4.046875 -12.421875 L 3.71875 -12.421875 L 1.796875 -15.3125 C 2.722656 -16.332031 3.851562 -17.128906 5.1875 -17.703125 C 6.519531 -18.273438 7.972656 -18.5625 9.546875 -18.5625 C 11.953125 -18.5625 13.691406 -18.046875 14.765625 -17.015625 C 15.847656 -15.992188 16.390625 -14.539062 16.390625 -12.65625 L 16.390625 -4.75 C 16.390625 -3.9375 16.75 -3.53125 17.46875 -3.53125 C 17.738281 -3.53125 18.007812 -3.582031 18.28125 -3.6875 L 18.5 -3.609375 L 18.84375 -0.421875 C 18.582031 -0.265625 18.226562 -0.132812 17.78125 -0.03125 C 17.332031 0.0703125 16.835938 0.125 16.296875 0.125 C 15.203125 0.125 14.347656 -0.0820312 13.734375 -0.5 C 13.128906 -0.914062 12.695312 -1.566406 12.4375 -2.453125 L 12.078125 -2.5 C 11.191406 -0.601562 9.53125 0.34375 7.09375 0.34375 Z M 8.546875 -3.078125 C 9.609375 -3.078125 10.453125 -3.429688 11.078125 -4.140625 C 11.710938 -4.847656 12.03125 -5.832031 12.03125 -7.09375 L 12.03125 -8.953125 L 11.71875 -9.015625 C 11.445312 -8.796875 11.085938 -8.609375 10.640625 -8.453125 C 10.191406 -8.304688 9.550781 -8.164062 8.71875 -8.03125 C 7.726562 -7.863281 7.015625 -7.578125 6.578125 -7.171875 C 6.140625 -6.773438 5.921875 -6.207031 5.921875 -5.46875 C 5.921875 -4.6875 6.148438 -4.09375 6.609375 -3.6875 C 7.078125 -3.28125 7.722656 -3.078125 8.546875 -3.078125 Z M 8.546875 -3.078125 "/></g></g></g><g fill="#000000" fill-opacity="1"><g transform="translate(273.677237, 78.719515)"><g><path d="M 2.625 0 L 2.625 -18.203125 L 7.015625 -18.203125 L 7.015625 -15.765625 L 7.359375 -15.703125 C 7.953125 -16.679688 8.648438 -17.398438 9.453125 -17.859375 C 10.253906 -18.328125 11.273438 -18.5625 12.515625 -18.5625 C 13.890625 -18.5625 14.992188 -18.285156 15.828125 -17.734375 C 16.671875 -17.191406 17.285156 -16.398438 17.671875 -15.359375 L 18.015625 -15.359375 C 18.578125 -16.441406 19.300781 -17.242188 20.1875 -17.765625 C 21.070312 -18.296875 22.175781 -18.5625 23.5 -18.5625 C 27.269531 -18.5625 29.15625 -16.457031 29.15625 -12.25 L 29.15625 0 L 24.578125 0 L 24.578125 -11.671875 C 24.578125 -12.742188 24.367188 -13.515625 23.953125 -13.984375 C 23.535156 -14.453125 22.863281 -14.6875 21.9375 -14.6875 C 19.425781 -14.6875 18.171875 -13.007812 18.171875 -9.65625 L 18.171875 0 L 13.609375 0 L 13.609375 -11.671875 C 13.609375 -12.742188 13.394531 -13.515625 12.96875 -13.984375 C 12.539062 -14.453125 11.867188 -14.6875 10.953125 -14.6875 C 9.765625 -14.6875 8.84375 -14.289062 8.1875 -13.5 C 7.53125 -12.71875 7.203125 -11.46875 7.203125 -9.75 L 7.203125 0 Z M 2.625 0 "/></g></g></g></svg>