<svg xmlns="http://www.w3.org/2000/svg" xmlns:xlink="http://www.w3.org/1999/xlink" width="203" zoomAndPan="magnify" viewBox="0 0 152.25 69.749998" height="93" preserveAspectRatio="xMidYMid meet" version="1.0"><defs><g/><clipPath id="7d73f5f9d7"><path d="M 35.632812 39.789062 L 65.53125 39.789062 L 65.53125 69.453125 L 35.632812 69.453125 Z M 35.632812 39.789062 " clip-rule="nonzero"/></clipPath><clipPath id="4fcc9e990e"><path d="M 86.035156 39.789062 L 115.933594 39.789062 L 115.933594 69.453125 L 86.035156 69.453125 Z M 86.035156 39.789062 " clip-rule="nonzero"/></clipPath></defs><path fill="#ffffff" d="M 56.496094 48.898438 L 53.972656 60.765625 C 53.847656 61.355469 53.148438 61.617188 52.660156 61.265625 L 46.652344 56.792969 L 53.285156 50.796875 C 53.285156 50.796875 53.734375 50.433594 53.609375 50.324219 C 53.472656 50.183594 52.984375 50.484375 52.722656 50.660156 C 52.472656 50.835938 44.601562 55.808594 44.601562 55.808594 L 40.628906 54.558594 C 40.179688 54.421875 40.179688 53.808594 40.828125 53.535156 L 55.496094 47.886719 C 56.121094 47.574219 56.632812 48.296875 56.496094 48.898438 Z M 56.496094 48.898438 " fill-opacity="1" fill-rule="nonzero"/><g clip-path="url(#7d73f5f9d7)"><path fill="#ffffff" d="M 50.460938 69.449219 C 42.292969 69.449219 35.632812 62.804688 35.632812 54.621094 C 35.632812 46.449219 42.292969 39.789062 50.460938 39.789062 C 58.644531 39.789062 65.289062 46.449219 65.289062 54.621094 C 65.289062 62.804688 58.644531 69.449219 50.460938 69.449219 Z M 50.460938 40.601562 C 42.726562 40.601562 36.445312 46.886719 36.445312 54.621094 C 36.445312 62.351562 42.726562 68.636719 50.460938 68.636719 C 58.195312 68.636719 64.480469 62.351562 64.480469 54.621094 C 64.480469 46.886719 58.195312 40.601562 50.460938 40.601562 Z M 50.460938 40.601562 " fill-opacity="1" fill-rule="nonzero"/></g><g clip-path="url(#4fcc9e990e)"><path fill="#ffffff" d="M 111.351562 44.132812 C 108.550781 41.332031 104.824219 39.789062 100.863281 39.789062 C 96.902344 39.789062 93.179688 41.332031 90.378906 44.132812 C 87.578125 46.933594 86.035156 50.660156 86.035156 54.621094 C 86.035156 58.582031 87.578125 62.304688 90.378906 65.105469 C 93.179688 67.90625 96.902344 69.449219 100.863281 69.449219 C 104.824219 69.449219 108.550781 67.90625 111.351562 65.105469 C 114.152344 62.304688 115.695312 58.582031 115.695312 54.621094 C 115.695312 50.660156 114.152344 46.933594 111.351562 44.132812 Z M 87.675781 54.621094 C 87.675781 52.96875 87.980469 51.386719 88.539062 49.929688 L 93.871094 49.929688 C 93.632812 51.421875 93.507812 53 93.507812 54.621094 C 93.507812 56.183594 93.625 57.714844 93.847656 59.160156 L 88.480469 59.160156 C 87.960938 57.746094 87.675781 56.214844 87.675781 54.621094 Z M 95.148438 54.621094 C 95.148438 52.992188 95.28125 51.410156 95.535156 49.929688 L 100.042969 49.929688 L 100.042969 59.160156 L 95.507812 59.160156 C 95.273438 57.726562 95.148438 56.195312 95.148438 54.621094 Z M 104.742188 45.0625 C 105.191406 46.023438 105.566406 47.113281 105.855469 48.289062 L 101.683594 48.289062 L 101.683594 41.582031 C 102.796875 41.992188 103.878906 43.207031 104.742188 45.0625 Z M 100.042969 41.582031 L 100.042969 48.289062 L 95.875 48.289062 C 96.164062 47.113281 96.535156 46.023438 96.984375 45.0625 C 97.851562 43.207031 98.933594 41.992188 100.042969 41.582031 Z M 100.042969 60.800781 L 100.042969 67.65625 C 98.933594 67.25 97.851562 66.03125 96.984375 64.179688 C 96.515625 63.175781 96.132812 62.035156 95.835938 60.800781 Z M 101.683594 67.65625 L 101.683594 60.800781 L 105.890625 60.800781 C 105.597656 62.035156 105.210938 63.175781 104.742188 64.179688 C 103.878906 66.03125 102.796875 67.25 101.683594 67.65625 Z M 101.683594 59.160156 L 101.683594 49.929688 L 106.195312 49.929688 C 106.449219 51.410156 106.582031 52.992188 106.582031 54.621094 C 106.582031 56.195312 106.457031 57.726562 106.222656 59.160156 Z M 107.855469 49.929688 L 113.191406 49.929688 C 113.746094 51.386719 114.054688 52.96875 114.054688 54.621094 C 114.054688 56.214844 113.769531 57.746094 113.246094 59.160156 L 107.878906 59.160156 C 108.105469 57.714844 108.222656 56.183594 108.222656 54.621094 C 108.222656 53 108.097656 51.421875 107.855469 49.929688 Z M 112.429688 48.289062 L 107.539062 48.289062 C 107.210938 46.855469 106.773438 45.53125 106.230469 44.367188 C 105.808594 43.464844 105.335938 42.6875 104.828125 42.039062 C 108.089844 43.070312 110.808594 45.335938 112.429688 48.289062 Z M 96.902344 42.039062 C 96.390625 42.6875 95.921875 43.464844 95.5 44.367188 C 94.957031 45.53125 94.515625 46.855469 94.191406 48.289062 L 89.296875 48.289062 C 90.917969 45.335938 93.640625 43.070312 96.902344 42.039062 Z M 89.214844 60.800781 L 94.15625 60.800781 C 94.484375 62.292969 94.9375 63.667969 95.5 64.871094 C 95.921875 65.777344 96.390625 66.554688 96.902344 67.199219 C 93.582031 66.152344 90.828125 63.828125 89.214844 60.800781 Z M 104.828125 67.199219 C 105.335938 66.554688 105.808594 65.777344 106.230469 64.871094 C 106.792969 63.667969 107.242188 62.292969 107.574219 60.800781 L 112.511719 60.800781 C 110.902344 63.828125 108.144531 66.152344 104.828125 67.199219 Z M 104.828125 67.199219 " fill-opacity="1" fill-rule="nonzero"/></g><g fill="#ffffff" fill-opacity="1"><g transform="translate(22.384769, 24.816869)"><g><path d="M 6.359375 0.1875 C 5.609375 0.1875 4.914062 0.101562 4.28125 -0.0625 C 3.644531 -0.238281 3.070312 -0.492188 2.5625 -0.828125 C 2.0625 -1.171875 1.648438 -1.585938 1.328125 -2.078125 C 1.003906 -2.578125 0.785156 -3.15625 0.671875 -3.8125 L 3.5 -4.453125 C 3.707031 -3.660156 4.0625 -3.078125 4.5625 -2.703125 C 5.070312 -2.328125 5.6875 -2.140625 6.40625 -2.140625 C 6.8125 -2.140625 7.175781 -2.195312 7.5 -2.3125 C 7.820312 -2.4375 8.078125 -2.617188 8.265625 -2.859375 C 8.453125 -3.097656 8.539062 -3.398438 8.53125 -3.765625 C 8.53125 -4.097656 8.441406 -4.378906 8.265625 -4.609375 C 8.085938 -4.847656 7.847656 -5.050781 7.546875 -5.21875 C 7.253906 -5.382812 6.914062 -5.53125 6.53125 -5.65625 C 6.144531 -5.78125 5.742188 -5.90625 5.328125 -6.03125 C 4.921875 -6.15625 4.515625 -6.289062 4.109375 -6.4375 C 3.710938 -6.582031 3.335938 -6.75 2.984375 -6.9375 C 2.628906 -7.132812 2.3125 -7.367188 2.03125 -7.640625 C 1.757812 -7.921875 1.546875 -8.25 1.390625 -8.625 C 1.234375 -9 1.15625 -9.445312 1.15625 -9.96875 C 1.15625 -10.59375 1.273438 -11.148438 1.515625 -11.640625 C 1.765625 -12.140625 2.109375 -12.554688 2.546875 -12.890625 C 2.984375 -13.234375 3.492188 -13.492188 4.078125 -13.671875 C 4.671875 -13.847656 5.3125 -13.9375 6 -13.9375 C 6.601562 -13.9375 7.195312 -13.867188 7.78125 -13.734375 C 8.363281 -13.609375 8.90625 -13.398438 9.40625 -13.109375 C 9.90625 -12.828125 10.328125 -12.457031 10.671875 -12 C 11.023438 -11.539062 11.269531 -10.984375 11.40625 -10.328125 L 8.8125 -9.6875 C 8.601562 -10.34375 8.269531 -10.828125 7.8125 -11.140625 C 7.363281 -11.453125 6.816406 -11.609375 6.171875 -11.609375 C 5.796875 -11.609375 5.445312 -11.550781 5.125 -11.4375 C 4.800781 -11.332031 4.539062 -11.164062 4.34375 -10.9375 C 4.144531 -10.707031 4.046875 -10.414062 4.046875 -10.0625 C 4.046875 -9.78125 4.125 -9.539062 4.28125 -9.34375 C 4.4375 -9.144531 4.644531 -8.972656 4.90625 -8.828125 C 5.175781 -8.691406 5.488281 -8.566406 5.84375 -8.453125 C 6.195312 -8.347656 6.566406 -8.238281 6.953125 -8.125 C 7.367188 -8 7.789062 -7.859375 8.21875 -7.703125 C 8.644531 -7.554688 9.050781 -7.378906 9.4375 -7.171875 C 9.832031 -6.972656 10.179688 -6.722656 10.484375 -6.421875 C 10.796875 -6.128906 11.039062 -5.773438 11.21875 -5.359375 C 11.394531 -4.953125 11.484375 -4.472656 11.484375 -3.921875 C 11.484375 -3.265625 11.359375 -2.679688 11.109375 -2.171875 C 10.859375 -1.660156 10.503906 -1.226562 10.046875 -0.875 C 9.585938 -0.53125 9.046875 -0.265625 8.421875 -0.078125 C 7.796875 0.0976562 7.109375 0.1875 6.359375 0.1875 Z M 6.359375 0.1875 "/></g></g></g><g fill="#ffffff" fill-opacity="1"><g transform="translate(35.211898, 24.816869)"><g><path d="M 5.0625 0 C 4.113281 0 3.378906 -0.265625 2.859375 -0.796875 C 2.335938 -1.328125 2.078125 -2.078125 2.078125 -3.046875 L 2.078125 -7.671875 L 0.15625 -7.671875 L 0.15625 -9.78125 L 0.765625 -9.78125 C 1.117188 -9.78125 1.410156 -9.832031 1.640625 -9.9375 C 1.878906 -10.050781 2.0625 -10.238281 2.1875 -10.5 C 2.3125 -10.769531 2.375 -11.148438 2.375 -11.640625 L 2.375 -12.9375 L 4.859375 -12.9375 L 4.859375 -9.78125 L 6.875 -9.78125 L 6.875 -7.671875 L 4.859375 -7.671875 L 4.859375 -3.34375 C 4.859375 -2.90625 4.957031 -2.582031 5.15625 -2.375 C 5.363281 -2.175781 5.640625 -2.078125 5.984375 -2.078125 L 6.875 -2.078125 L 6.875 0 Z M 5.0625 0 "/></g></g></g><g fill="#ffffff" fill-opacity="1"><g transform="translate(43.272411, 24.816869)"><g><path d="M 9.4375 -2.375 C 9.4375 -2.019531 9.441406 -1.71875 9.453125 -1.46875 C 9.472656 -1.21875 9.5 -1 9.53125 -0.8125 C 9.570312 -0.632812 9.617188 -0.453125 9.671875 -0.265625 L 9.671875 0 L 7.109375 0 L 6.890625 -1.0625 C 6.648438 -0.769531 6.359375 -0.53125 6.015625 -0.34375 C 5.671875 -0.15625 5.300781 -0.0195312 4.90625 0.0625 C 4.519531 0.144531 4.140625 0.1875 3.765625 0.1875 C 3.367188 0.1875 2.988281 0.140625 2.625 0.046875 C 2.269531 -0.046875 1.945312 -0.195312 1.65625 -0.40625 C 1.375 -0.613281 1.144531 -0.890625 0.96875 -1.234375 C 0.800781 -1.585938 0.71875 -2.019531 0.71875 -2.53125 C 0.71875 -3.039062 0.804688 -3.46875 0.984375 -3.8125 C 1.160156 -4.164062 1.40625 -4.460938 1.71875 -4.703125 C 2.039062 -4.941406 2.414062 -5.132812 2.84375 -5.28125 C 3.28125 -5.4375 3.753906 -5.570312 4.265625 -5.6875 L 5.875 -6.046875 C 6.226562 -6.128906 6.472656 -6.234375 6.609375 -6.359375 C 6.753906 -6.492188 6.828125 -6.65625 6.828125 -6.84375 C 6.828125 -7.164062 6.738281 -7.414062 6.5625 -7.59375 C 6.394531 -7.78125 6.1875 -7.90625 5.9375 -7.96875 C 5.6875 -8.039062 5.429688 -8.078125 5.171875 -8.078125 C 4.679688 -8.078125 4.257812 -7.960938 3.90625 -7.734375 C 3.5625 -7.515625 3.347656 -7.128906 3.265625 -6.578125 L 0.84375 -7.015625 C 1.039062 -8.035156 1.507812 -8.78125 2.25 -9.25 C 3 -9.726562 4.023438 -9.96875 5.328125 -9.96875 C 5.722656 -9.96875 6.113281 -9.9375 6.5 -9.875 C 6.894531 -9.820312 7.265625 -9.722656 7.609375 -9.578125 C 7.960938 -9.429688 8.273438 -9.222656 8.546875 -8.953125 C 8.828125 -8.691406 9.046875 -8.351562 9.203125 -7.9375 C 9.359375 -7.53125 9.4375 -7.03125 9.4375 -6.4375 Z M 4.578125 -1.53125 C 5.015625 -1.53125 5.410156 -1.640625 5.765625 -1.859375 C 6.128906 -2.085938 6.421875 -2.425781 6.640625 -2.875 C 6.859375 -3.332031 6.96875 -3.910156 6.96875 -4.609375 L 4.640625 -3.953125 C 4.210938 -3.859375 3.882812 -3.707031 3.65625 -3.5 C 3.4375 -3.300781 3.328125 -3.015625 3.328125 -2.640625 C 3.328125 -2.265625 3.445312 -1.984375 3.6875 -1.796875 C 3.925781 -1.617188 4.222656 -1.53125 4.578125 -1.53125 Z M 4.578125 -1.53125 "/></g></g></g><g fill="#ffffff" fill-opacity="1"><g transform="translate(54.444071, 24.816869)"><g><path d="M 7.828125 -9.78125 L 10.625 -9.78125 L 4.515625 4.796875 L 1.75 4.796875 L 4.046875 -0.40625 L 0.03125 -9.78125 L 3.015625 -9.78125 L 5.34375 -3.34375 Z M 7.828125 -9.78125 "/></g></g></g><g fill="#ffffff" fill-opacity="1"><g transform="translate(65.587182, 24.816869)"><g/></g></g><g fill="#ffffff" fill-opacity="1"><g transform="translate(71.135949, 24.816869)"><g><path d="M 5.0625 0 C 4.113281 0 3.378906 -0.265625 2.859375 -0.796875 C 2.335938 -1.328125 2.078125 -2.078125 2.078125 -3.046875 L 2.078125 -7.671875 L 0.15625 -7.671875 L 0.15625 -9.78125 L 0.765625 -9.78125 C 1.117188 -9.78125 1.410156 -9.832031 1.640625 -9.9375 C 1.878906 -10.050781 2.0625 -10.238281 2.1875 -10.5 C 2.3125 -10.769531 2.375 -11.148438 2.375 -11.640625 L 2.375 -12.9375 L 4.859375 -12.9375 L 4.859375 -9.78125 L 6.875 -9.78125 L 6.875 -7.671875 L 4.859375 -7.671875 L 4.859375 -3.34375 C 4.859375 -2.90625 4.957031 -2.582031 5.15625 -2.375 C 5.363281 -2.175781 5.640625 -2.078125 5.984375 -2.078125 L 6.875 -2.078125 L 6.875 0 Z M 5.0625 0 "/></g></g></g><g fill="#ffffff" fill-opacity="1"><g transform="translate(79.196462, 24.816869)"><g><path d="M 7.890625 -9.78125 L 10.640625 -9.78125 L 10.640625 0 L 8.046875 0 L 7.96875 -1.1875 C 7.625 -0.75 7.1875 -0.410156 6.65625 -0.171875 C 6.132812 0.0664062 5.535156 0.1875 4.859375 0.1875 C 3.679688 0.1875 2.78125 -0.101562 2.15625 -0.6875 C 1.53125 -1.28125 1.21875 -2.117188 1.21875 -3.203125 L 1.21875 -9.78125 L 3.96875 -9.78125 L 3.96875 -3.78125 C 3.96875 -3.351562 4.046875 -3.007812 4.203125 -2.75 C 4.367188 -2.488281 4.582031 -2.300781 4.84375 -2.1875 C 5.113281 -2.070312 5.410156 -2.015625 5.734375 -2.015625 C 6.109375 -2.015625 6.457031 -2.085938 6.78125 -2.234375 C 7.113281 -2.378906 7.378906 -2.625 7.578125 -2.96875 C 7.785156 -3.3125 7.890625 -3.785156 7.890625 -4.390625 Z M 7.890625 -9.78125 "/></g></g></g><g fill="#ffffff" fill-opacity="1"><g transform="translate(91.738165, 24.816869)"><g><path d="M 7.1875 -9.96875 C 8.363281 -9.96875 9.265625 -9.671875 9.890625 -9.078125 C 10.523438 -8.492188 10.84375 -7.660156 10.84375 -6.578125 L 10.84375 0 L 8.09375 0 L 8.09375 -6 C 8.09375 -6.4375 8.007812 -6.785156 7.84375 -7.046875 C 7.6875 -7.304688 7.472656 -7.488281 7.203125 -7.59375 C 6.941406 -7.707031 6.65625 -7.765625 6.34375 -7.765625 C 5.96875 -7.765625 5.613281 -7.691406 5.28125 -7.546875 C 4.945312 -7.398438 4.675781 -7.15625 4.46875 -6.8125 C 4.269531 -6.46875 4.164062 -5.992188 4.15625 -5.390625 L 4.15625 0 L 1.421875 0 L 1.421875 -9.78125 L 4.15625 -9.78125 L 4.15625 -8.703125 C 4.5 -9.097656 4.925781 -9.40625 5.4375 -9.625 C 5.957031 -9.851562 6.539062 -9.96875 7.1875 -9.96875 Z M 7.1875 -9.96875 "/></g></g></g><g fill="#ffffff" fill-opacity="1"><g transform="translate(104.298896, 24.816869)"><g><path d="M 10.625 -5.03125 L 10.59375 -4.375 L 3.34375 -4.375 C 3.375 -3.832031 3.503906 -3.382812 3.734375 -3.03125 C 3.972656 -2.675781 4.273438 -2.410156 4.640625 -2.234375 C 5.003906 -2.054688 5.40625 -1.96875 5.84375 -1.96875 C 6.332031 -1.96875 6.757812 -2.078125 7.125 -2.296875 C 7.488281 -2.523438 7.765625 -2.859375 7.953125 -3.296875 L 10.46875 -2.921875 C 10.25 -2.265625 9.914062 -1.703125 9.46875 -1.234375 C 9.03125 -0.773438 8.503906 -0.421875 7.890625 -0.171875 C 7.273438 0.0664062 6.597656 0.1875 5.859375 0.1875 C 4.804688 0.1875 3.890625 -0.0078125 3.109375 -0.40625 C 2.328125 -0.8125 1.71875 -1.390625 1.28125 -2.140625 C 0.851562 -2.898438 0.640625 -3.816406 0.640625 -4.890625 C 0.640625 -5.691406 0.765625 -6.40625 1.015625 -7.03125 C 1.265625 -7.664062 1.617188 -8.203125 2.078125 -8.640625 C 2.535156 -9.078125 3.078125 -9.410156 3.703125 -9.640625 C 4.328125 -9.867188 5.019531 -9.984375 5.78125 -9.984375 C 6.46875 -9.984375 7.101562 -9.882812 7.6875 -9.6875 C 8.28125 -9.5 8.796875 -9.203125 9.234375 -8.796875 C 9.671875 -8.390625 10.007812 -7.875 10.25 -7.25 C 10.5 -6.625 10.625 -5.882812 10.625 -5.03125 Z M 5.796875 -8.046875 C 5.140625 -8.046875 4.597656 -7.878906 4.171875 -7.546875 C 3.753906 -7.222656 3.492188 -6.703125 3.390625 -5.984375 L 7.921875 -5.984375 C 7.878906 -6.671875 7.660156 -7.1875 7.265625 -7.53125 C 6.867188 -7.875 6.378906 -8.046875 5.796875 -8.046875 Z M 5.796875 -8.046875 "/></g></g></g><g fill="#ffffff" fill-opacity="1"><g transform="translate(116.069944, 24.816869)"><g><path d="M 8.359375 -14.609375 L 11.09375 -14.609375 L 11.09375 0 L 8.5 0 L 8.421875 -1.28125 C 8.148438 -0.789062 7.738281 -0.414062 7.1875 -0.15625 C 6.632812 0.101562 6.023438 0.234375 5.359375 0.234375 C 4.710938 0.234375 4.101562 0.117188 3.53125 -0.109375 C 2.96875 -0.347656 2.46875 -0.6875 2.03125 -1.125 C 1.601562 -1.5625 1.265625 -2.09375 1.015625 -2.71875 C 0.765625 -3.351562 0.640625 -4.070312 0.640625 -4.875 C 0.640625 -5.664062 0.765625 -6.378906 1.015625 -7.015625 C 1.265625 -7.648438 1.601562 -8.1875 2.03125 -8.625 C 2.46875 -9.0625 2.96875 -9.394531 3.53125 -9.625 C 4.101562 -9.851562 4.710938 -9.96875 5.359375 -9.96875 C 5.992188 -9.96875 6.578125 -9.847656 7.109375 -9.609375 C 7.648438 -9.378906 8.066406 -9.039062 8.359375 -8.59375 Z M 5.984375 -2.046875 C 6.472656 -2.046875 6.910156 -2.160156 7.296875 -2.390625 C 7.691406 -2.628906 8.003906 -2.957031 8.234375 -3.375 C 8.460938 -3.800781 8.578125 -4.300781 8.578125 -4.875 C 8.578125 -5.445312 8.457031 -5.941406 8.21875 -6.359375 C 7.988281 -6.785156 7.675781 -7.113281 7.28125 -7.34375 C 6.894531 -7.582031 6.460938 -7.703125 5.984375 -7.703125 C 5.503906 -7.703125 5.066406 -7.585938 4.671875 -7.359375 C 4.273438 -7.128906 3.960938 -6.800781 3.734375 -6.375 C 3.503906 -5.957031 3.390625 -5.457031 3.390625 -4.875 C 3.390625 -4.289062 3.503906 -3.785156 3.734375 -3.359375 C 3.960938 -2.941406 4.273438 -2.617188 4.671875 -2.390625 C 5.066406 -2.160156 5.503906 -2.046875 5.984375 -2.046875 Z M 5.984375 -2.046875 "/></g></g></g></svg>